<svg id="outline" height="512" viewBox="0 0 512 512" width="512" xmlns="http://www.w3.org/2000/svg"><path d="m139.79 296a7.994 7.994 0 0 0 7.793 3.953l18.819-2.046 7.637 17.321a8 8 0 0 0 14.641 0l7.637-17.321 18.818 2.046a8 8 0 0 0 7.32-12.679l-11.182-15.274 11.182-15.274a8 8 0 0 0 -7.32-12.679l-18.818 2.046-7.637-17.321a8 8 0 0 0 -14.641 0l-7.639 17.321-18.819-2.046a8 8 0 0 0 -7.32 12.679l11.183 15.274-11.182 15.274a8 8 0 0 0 -.472 8.726zm28.024-28.726-3.924-5.36 6.6.718a8 8 0 0 0 8.186-4.726l2.68-6.078 2.68 6.078a8 8 0 0 0 8.186 4.726l6.6-.718-3.924 5.36a8 8 0 0 0 0 9.451l3.924 5.36-6.6-.718a8.01 8.01 0 0 0 -8.186 4.726l-2.68 6.078-2.68-6.078a7.994 7.994 0 0 0 -8.186-4.726l-6.6.718 3.924-5.36a8 8 0 0 0 0-9.451z"/><path d="m388.684 235.914a15.81 15.81 0 0 0 -15.586-7.906l-18.03 1.96-7.316-16.595a16 16 0 0 0 -29.281 0l-7.316 16.595-18.03-1.96a16 16 0 0 0 -14.641 25.357l10.716 14.635-10.713 14.635a16 16 0 0 0 14.641 25.357l18.03-1.96 7.316 16.595a16 16 0 0 0 29.281 0l7.316-16.595 18.03 1.96a16 16 0 0 0 14.641-25.357l-10.717-14.635 10.713-14.635a15.8 15.8 0 0 0 .946-17.451zm-28.028 36.812 14.167 19.359-23.847-2.593a8.006 8.006 0 0 0 -8.186 4.726l-9.682 21.949-9.678-21.949a7.994 7.994 0 0 0 -8.186-4.726l-23.844 2.589 14.169-19.355a8 8 0 0 0 0-9.451l-14.169-19.36 23.847 2.593a8 8 0 0 0 8.186-4.726l9.682-21.949 9.678 21.949a8 8 0 0 0 8.186 4.726l23.849-2.589-14.169 19.355a8 8 0 0 0 -.004 9.452z"/><path d="m192 183h16v16h-16z"/><path d="m184 328h16v16h-16z"/><path d="m376 192h16v16h-16z"/><path d="m368 344h16v16h-16z"/><path d="m252 320a36 36 0 1 0 36 36 36.041 36.041 0 0 0 -36-36zm0 56a20 20 0 1 1 20-20 20.023 20.023 0 0 1 -20 20z"/><path d="m123.578 304.845-7.165 14.306c.611.308 61.389 31.552 84 99.379l15.18-5.06c-24.767-74.289-89.281-107.258-92.015-108.625z"/><path d="m288 416 16 .056c0-.224.574-22.8 22.86-59.94l-13.721-8.232c-24.853 41.424-25.139 67.046-25.139 68.116z"/><path d="m240.062 303.008 15.877 1.984c8.479-67.827-25.681-94.3-27.139-95.392l-9.654 12.759c1.154.897 28.168 22.63 20.916 80.649z"/><path d="m98 266h16v16h-16z"/><path d="m248 400h16v24h-16z"/><path d="m261.657 213.657 6.343-6.343 6.343 6.343 11.314-11.314-6.343-6.343 6.343-6.343-11.314-11.314-6.343 6.343-6.343-6.343-11.314 11.314 6.343 6.343-6.343 6.343z"/><path d="m138.343 362.343-6.343 6.343-6.343-6.343-11.314 11.314 6.343 6.343-6.343 6.343 11.314 11.314 6.343-6.343 6.343 6.343 11.314-11.314-6.343-6.343 6.343-6.343z"/><path d="m362.343 370.343-6.343 6.343-6.343-6.343-11.314 11.314 6.343 6.343-6.343 6.343 11.314 11.314 6.343-6.343 6.343 6.343 11.314-11.314-6.343-6.343 6.343-6.343z"/><path d="m504 456c-18.452 0-40-12.571-40-48v-344a24.027 24.027 0 0 0 -24-24h-48v-16a24.027 24.027 0 0 0 -24-24h-32a24.027 24.027 0 0 0 -24 24v16h-152v-16a24.027 24.027 0 0 0 -24-24h-32a24.027 24.027 0 0 0 -24 24v16h-56a24.027 24.027 0 0 0 -24 24v424a24.027 24.027 0 0 0 24 24h416a24.027 24.027 0 0 0 24-24v-16h40a8 8 0 0 0 0-16zm-176-432a8.009 8.009 0 0 1 8-8h32a8.009 8.009 0 0 1 8 8v16h-48zm-232 0a8.009 8.009 0 0 1 8-8h32a8.009 8.009 0 0 1 8 8v16h-48zm-16 32h64v8.228a36 36 0 1 0 16 1.837v-10.065h216v8.228a36 36 0 1 0 16 1.837v-10.065h48a8.009 8.009 0 0 1 8 8v80h-392v-80a8.009 8.009 0 0 1 8-8zm80 28.038a19.967 19.967 0 1 1 -16-3.638v23.6h16zm232 0a19.967 19.967 0 1 1 -16-3.638v23.6h16zm56 403.962a8.009 8.009 0 0 1 -8 8h-416a8.009 8.009 0 0 1 -8-8v-424a8.009 8.009 0 0 1 8-8h17.376a23.884 23.884 0 0 0 -1.376 8v344a64.073 64.073 0 0 0 64 64h344zm-344-32a48.054 48.054 0 0 1 -48-48v-248h392v248c0 17.385 5.03 33.227 14.163 44.605q1.426 1.776 2.961 3.395z"/></svg>