<svg id="Capa_1" enable-background="new 0 0 512.002 512.002" height="512" viewBox="0 0 512.002 512.002" width="512" xmlns="http://www.w3.org/2000/svg"><g><g><path d="m237.692 512.002c-4.143 0-7.5-3.358-7.5-7.5s3.357-7.5 7.5-7.5c48.172 0 84.072-23.073 105.706-42.428 26.337-23.563 46.659-54.86 55.758-85.867.937-3.194 3.867-5.388 7.196-5.388 16.092 0 29.184-13.091 29.184-29.183s-13.092-29.183-29.184-29.183c-3.099 0-5.878-1.906-6.995-4.796-23.304-60.284-62.271-104.818-103.534-148.871-2.832-3.023-2.677-7.769.347-10.601 3.022-2.833 7.769-2.677 10.601.347 41.298 44.09 80.384 88.728 104.804 149.227 21.911 2.592 38.962 21.28 38.962 43.876 0 22.455-16.84 41.051-38.553 43.826-10.501 31.938-31.635 63.681-58.583 87.791-23.583 21.099-62.8 46.25-115.709 46.25zm-153.726 0c-12.406 0-22.5-10.093-22.5-22.5v-226.329c0-4.142 3.357-7.5 7.5-7.5s7.5 3.358 7.5 7.5v226.329c0 4.136 3.364 7.5 7.5 7.5 4.143 0 7.5 3.358 7.5 7.5s-3.358 7.5-7.5 7.5zm153.726-73.671c-5.358 0-10.716-1.906-14.988-5.719-67.79-60.495-93.406-86.471-93.406-119.512 0-34.375 27.967-62.342 62.342-62.342 17.743 0 34.334 7.464 46.053 20.364 11.719-12.899 28.31-20.364 46.052-20.364 4.143 0 7.5 3.358 7.5 7.5s-3.357 7.5-7.5 7.5c-16.106 0-30.968 8.112-39.754 21.7-1.382 2.137-3.753 3.428-6.298 3.428s-4.916-1.291-6.298-3.428c-8.786-13.588-23.647-21.7-39.755-21.7-26.104 0-47.342 21.238-47.342 47.342 0 25.379 20.987 48.169 88.393 108.321 2.852 2.544 7.152 2.544 10.004 0 76.202-68.002 88.393-85.871 88.393-108.321 0-15.752-7.805-30.43-20.878-39.261-3.433-2.319-4.335-6.981-2.017-10.413 2.318-3.433 6.98-4.335 10.413-2.017 17.208 11.625 27.481 30.949 27.481 51.691 0 33.041-25.616 59.018-93.406 119.512-4.273 3.812-9.63 5.719-14.989 5.719zm-168.726-197.658c-4.143 0-7.5-3.358-7.5-7.5v-210.671c0-12.407 10.094-22.5 22.5-22.5 4.143 0 7.5 3.358 7.5 7.5s-3.357 7.5-7.5 7.5c-4.136 0-7.5 3.364-7.5 7.5v210.671c0 4.142-3.358 7.5-7.5 7.5zm212.532-108.178c-2.016 0-4.025-.808-5.503-2.402-34.155-36.862-65.6-73.862-75.106-121.112-.817-4.061 1.813-8.015 5.873-8.832 4.061-.819 8.015 1.813 8.832 5.873 8.737 43.428 38.761 78.646 71.403 113.875 2.815 3.039 2.635 7.784-.403 10.599-1.444 1.338-3.273 1.999-5.096 1.999z"/></g></g></svg>